<svg width="1064" height="180" viewBox="0 0 1064 180" fill="none" xmlns="http://www.w3.org/2000/svg">
<path d="M524.236 155.374C524.236 157.434 523.869 159.347 523.133 161.113C522.397 162.878 521.367 164.423 520.043 165.747C518.719 166.998 517.174 167.991 515.408 168.727C513.643 169.463 511.767 169.83 509.78 169.83H445.114C439.008 169.83 432.829 169.168 426.575 167.844C420.322 166.52 414.253 164.497 408.367 161.775C402.555 158.979 397.075 155.448 391.925 151.181C386.775 146.914 382.251 141.875 378.352 136.063C374.526 130.177 371.51 123.483 369.303 115.979C367.096 108.401 365.992 99.9778 365.992 90.7083V11.5862H394.684V90.7083C394.684 98.8007 395.787 105.643 397.994 111.234C400.275 116.825 403.144 121.496 406.602 125.248C410.059 129 413.848 131.943 417.968 134.076C422.088 136.21 425.987 137.792 429.665 138.822C433.417 139.852 436.691 140.514 439.486 140.808C442.356 141.029 444.232 141.139 445.114 141.139H495.545V11.5862H524.236V155.374Z" fill="#042742"/>
<path d="M721.413 169.857H692.501V75.6169L641.629 165.112C640.378 167.393 638.613 169.121 636.332 170.299C634.125 171.476 631.734 172.064 629.159 172.064C626.658 172.064 624.304 171.476 622.097 170.299C619.963 169.121 618.271 167.393 617.021 165.112L565.928 75.6169V169.857H537.236V23.862C537.236 20.5515 538.193 17.6088 540.106 15.0339C542.092 12.459 544.667 10.7302 547.83 9.84739C549.375 9.47955 550.92 9.3692 552.465 9.51633C554.01 9.5899 555.481 9.92095 556.879 10.5095C558.35 11.0244 559.675 11.7969 560.852 12.8269C562.029 13.7832 563.022 14.9603 563.831 16.3581L629.159 129.91L694.487 16.3581C696.179 13.5625 698.497 11.5762 701.44 10.3991C704.456 9.22206 707.582 9.03814 710.819 9.84739C713.909 10.7302 716.447 12.459 718.434 15.0339C720.42 17.6088 721.413 20.5515 721.413 23.862V169.857Z" fill="#042742"/>
<path d="M892.657 169.83H863.966V130.987H763.105V169.83H734.413V90.7083C734.413 79.1582 736.399 68.5276 740.372 58.8167C744.345 49.1058 749.862 40.7558 756.925 33.7669C763.987 26.778 772.337 21.3339 781.975 17.4349C791.612 13.5358 802.132 11.5862 813.535 11.5862H878.201C880.188 11.5862 882.064 11.9541 883.829 12.6897C885.595 13.4254 887.14 14.4554 888.464 15.7796C889.788 17.1038 890.818 18.6487 891.554 20.4144C892.289 22.18 892.657 24.056 892.657 26.0423V169.83ZM763.105 102.295H863.966V40.2776H813.535C812.652 40.2776 810.776 40.4248 807.907 40.719C805.112 40.9397 801.838 41.5651 798.086 42.595C794.408 43.625 790.509 45.2067 786.389 47.3401C782.269 49.4736 778.48 52.4163 775.023 56.1683C771.565 59.9202 768.696 64.6285 766.415 70.2933C764.208 75.8844 763.105 82.6894 763.105 90.7083V102.295Z" fill="#042742"/>
<path d="M1063.79 157.569C1063.79 159.629 1063.38 161.542 1062.57 163.307C1061.84 165.073 1060.81 166.618 1059.48 167.942C1058.23 169.193 1056.72 170.186 1054.96 170.922C1053.19 171.657 1051.32 172.025 1049.33 172.025C1047.56 172.025 1045.76 171.694 1043.92 171.032C1042.16 170.37 1040.58 169.303 1039.18 167.832L934.349 58.363V169.818H905.657V23.823C905.657 20.8803 906.467 18.2318 908.085 15.8777C909.777 13.4499 911.911 11.6475 914.485 10.4704C917.207 9.36694 920.003 9.10946 922.872 9.698C925.741 10.213 928.206 11.5372 930.266 13.6706L1035.09 123.029V11.574H1063.79V157.569Z" fill="#042742"/>
<path d="M352.992 123.262C352.992 128.927 352.257 134.04 350.785 138.601C349.387 143.089 347.511 147.061 345.157 150.519C342.803 153.977 340.044 156.919 336.881 159.347C333.718 161.775 330.444 163.761 327.06 165.306C323.676 166.851 320.218 167.991 316.687 168.727C313.229 169.463 309.955 169.83 306.865 169.83H196.183V141.139H306.865C312.383 141.139 316.65 139.52 319.666 136.283C322.756 133.047 324.301 128.706 324.301 123.262C324.301 120.614 323.896 118.186 323.087 115.979C322.278 113.772 321.101 111.859 319.556 110.241C318.084 108.622 316.245 107.371 314.038 106.489C311.905 105.606 309.514 105.164 306.865 105.164H240.875C236.24 105.164 231.238 104.355 225.867 102.737C220.497 101.045 215.494 98.3593 210.859 94.681C206.298 91.0026 202.473 86.1839 199.383 80.2249C196.367 74.2659 194.858 66.9827 194.858 58.3753C194.858 49.7679 196.367 42.5214 199.383 36.636C202.473 30.677 206.298 25.8584 210.859 22.18C215.494 18.428 220.497 15.7428 225.867 14.1243C231.238 12.4323 236.24 11.5862 240.875 11.5862H338.536V40.2776H240.875C235.431 40.2776 231.164 41.9329 228.074 45.2435C225.058 48.554 223.55 52.9313 223.55 58.3753C223.55 63.8929 225.058 68.2701 228.074 71.5071C231.164 74.6705 235.431 76.2522 240.875 76.2522H307.086C310.176 76.3258 313.45 76.7672 316.907 77.5765C320.365 78.3121 323.786 79.4892 327.17 81.1077C330.628 82.7262 333.901 84.7861 336.991 87.2874C340.081 89.7151 342.803 92.6578 345.157 96.1155C347.585 99.5732 349.498 103.546 350.896 108.033C352.293 112.521 352.992 117.597 352.992 123.262Z" fill="#042742"/>
<path fill-rule="evenodd" clip-rule="evenodd" d="M126.028 2.94036C152.812 8.05614 170.564 18.2569 170.569 28.5331C170.57 33.6673 167.549 36.2783 154.783 42.1675C149.064 44.8061 144.386 47.6092 144.386 48.3996C144.386 49.1884 147.413 52.8542 151.111 56.5476C154.811 60.2396 160.508 68.6566 163.772 75.2516C169.189 86.1905 169.757 88.5369 170.262 102.022C170.922 119.648 167.951 130.944 159.191 144.119C151.881 155.114 142.686 162.554 128.08 169.292C110.587 177.36 97.951 179.717 71.9949 179.758C47.0785 179.797 35.3666 177.592 18.0866 169.608C5.14098 163.627 1.14406 159.869 1.14406 153.677C1.14406 147.784 3.496 145.567 16.5156 139.184C22.005 136.493 26.7659 134.021 27.0986 133.69C27.4297 133.36 24.1136 129.079 19.7301 124.177C10.0266 113.327 3.38356 100.08 1.11479 87.0516C-3.31493 61.631 9.53373 32.2558 31.4097 17.791C53.1086 3.44162 94.5795 -3.06726 126.028 2.94036ZM88.7251 41.4555C73.2719 44.5539 58.8567 52.8127 53.3365 61.7311C50.5672 66.2041 50.2237 68.4613 51.0277 76.9015C51.5468 82.3556 52.4017 91.3462 52.9254 96.8787C54.0513 108.757 51.2911 117.683 44.2044 125.087C41.6985 127.704 39.65 130.879 39.65 132.143C39.65 135.142 48.5741 138.791 61.1671 140.942C74.7412 143.261 90.886 139.759 104.559 131.53C120.091 122.181 121.269 118.601 119.022 87.5867C117.763 70.225 119.173 64.9356 127.604 55.3498C130.236 52.356 132.035 48.9793 131.599 47.846C130.725 45.5719 116.687 41.3864 105.88 40.1808C102.068 39.7549 94.3485 40.3284 88.7251 41.4555ZM97.5968 73.7293C105.087 78.6283 108.072 91.9644 103.607 100.585C95.2372 116.745 70.8813 113.787 66.2237 96.0438C64.6003 89.8532 66.3777 81.3853 70.2221 76.9968C76.4832 69.8529 89.3272 68.3198 97.5968 73.7293Z" fill="#3413FF"/>
</svg>
