<svg xmlns="http://www.w3.org/2000/svg" xmlns:xlink="http://www.w3.org/1999/xlink" width="1920" height="1280" viewBox="0 0 1920 1280">
  <defs>
    <clipPath id="clip-path">
      <rect id="mask" width="1920" height="1280" transform="translate(-14409 -20087)" fill="#fff"/>
    </clipPath>
  </defs>
  <g id="banner-animation-1" transform="translate(14409 20087)" clip-path="url(#clip-path)">
    <g id="gray">
      <path id="Path_30512" data-name="Path 30512" d="M3840-313.989v217.8a4.16,4.16,0,0,1-2,3.5c-16.4,9.7-33.5,19.3-51.1,28.9-190.3,103.7-402.7,30.8-596.1-35.6-215.2-73.9-406.8-139.6-518.1,55.1-146.1,255.6-447.7,356.7-752.4,433.5a4.337,4.337,0,0,1-.5.1c-360.1,48-526.6,195.1-669.3,321.2-168.7,149.2-304.1,268.8-686.6,160C226.5,774.611,94,814.411,0,970.711c-12.4,20.6-50.9,56.2-77.5,68.5-167,77-378.3-6.8-571.7-73.1-215.2-73.9-406.8-139.6-518.1,55.1-146.1,255.6-447.8,356.2-752.5,433a.367.367,0,0,0-.3.1c-6.3,1.1-225.3,40.3-389.5,117.1-76.5,35.8-176.3,96.2-279.4,204.2l-.5.4c-168.7,149.1-304.1,268.8-686.6,160-421.2-119.8-497.1-2.1-556.3,89.6-2.5,3.9-5.1,7.8-7.6,11.7v-233.9q25.65-15.15,53.1-30.1c190.3-103.7,402.7-30.8,596.1,35.6,215.2,73.8,406.8,139.6,518.1-55.1,146.1-255.7,447.9-356.8,752.6-433.5v.3c85.2-14,213-26.2,390.4-117.4,66.7-34.3,67.2-16.8,279.1-204,168.7-149.2,304.1-268.8,686.6-160,335.8,95.5,371.9,63.3,470.6-24.6,25.1-22.3,54.2-48.3,93.3-76.7a12.293,12.293,0,0,1,2.5-1.4c.2-.1.3-.1.5-.2q24.15-14.25,50.1-28.3c190.3-103.7,402.7-30.8,596.1,35.6,215.2,73.9,406.8,139.6,518.1-55.1,146.1-255.6,447.7-356.2,752.4-432.9a4.333,4.333,0,0,1,.5-.1c359.6-48,526.2-195.2,668.8-321.3l.5-.4c168.7-149.2,304.1-268.8,686.6-160,421.1,119.8,497.1,2.1,556.3-89.6l.1-.1A4.041,4.041,0,0,1,3840-313.989Z" transform="translate(-14409 -20087)" fill="#f7f7f7"/>
    </g>
    <g id="green">
      <path id="Path_30516" data-name="Path 30516" d="M94.151,4285.44c-11.081-.511-22.47-1.43-33.84-2.71-11.63-1.3-23.6-3.042-35.58-5.131-5.431-.96-10.94-2-16.481-3.121q-4.108-.824-8.249-1.729v-143.2l2.321.509,1.039.222c13.6,2.918,27.211,5.339,40.46,7.2,12.86,1.8,25.779,3.121,38.381,3.93,12.2.79,24.48,1.11,36.5.969,11.59-.139,23.3-.719,34.8-1.719,11.539-1.01,23.229-2.471,34.761-4.369,11-1.8,22.21-4.04,33.329-6.652a580.429,580.429,0,0,0,63.241-18.938c18.359-6.581,38.02-14.51,60.1-24.241,19.691-8.679,39.491-17.96,58.64-26.959l.05-.021,2.471-1.158c21.959-10.312,40.289-18.862,59.659-27.34,22.551-9.88,42.781-17.96,61.82-24.71a608.718,608.718,0,0,1,65.74-19.4c11.62-2.689,23.36-5,34.89-6.869,7.97-1.289,16.019-2.39,24.06-3.3q6.254-.706,12.48-1.251c14.009-1.22,28.3-1.86,42.49-1.91,14.779-.039,29.939.551,45.059,1.781,15.67,1.27,31.8,3.269,47.929,5.919,16.67,2.741,33.861,6.27,51.1,10.5a285.222,285.222,0,0,0,43.66,7.29,238.769,238.769,0,0,0,40.8.021,222.658,222.658,0,0,0,47.38-9.39q6.54-2.056,12.95-4.481,4.814-1.827,9.529-3.849c7.239-3.121,14.581-6.68,21.789-10.6,7.031-3.84,14.161-8.118,21.18-12.75,6.85-4.51,13.81-9.479,20.691-14.78,6.69-5.14,13.509-10.749,20.269-16.67,6.551-5.73,13.27-11.95,19.96-18.469,12.75-12.42,25.61-26.1,39.319-41.8,12.32-14.109,25.132-29.649,39.152-47.5,26.059-33.159,52.38-69.3,80.248-107.57l.36-.49.131-.2.189-.25c36.28-49.81,73.8-101.321,116.121-153.88,23.7-29.451,46.339-56.04,69.219-81.3,12.49-13.81,25.18-27.319,37.71-40.191,13.22-13.569,26.71-26.858,40.079-39.5,8.87-8.38,17.871-16.661,26.9-24.721q7.861-7.02,15.739-13.82c14.891-12.85,30.17-25.4,45.42-37.309,15.851-12.37,32.142-24.42,48.411-35.8,16.859-11.79,34.229-23.231,51.62-34.011,17.96-11.129,36.469-21.88,55.03-31.939,19.13-10.381,38.87-20.34,58.659-29.6,20.371-9.541,41.4-18.611,62.51-26.992l.871-.339c7.509-2.99,15.1-6,22.769-8.851l-.01,39.99c-.68.21-1.359.451-2.03.69l-.389.131-.281.1-1.049.37-.871.28c-24.239,7.619-48.2,15.949-71.23,24.76-22.42,8.59-44.6,17.871-65.891,27.6-20.708,9.46-41.179,19.6-60.858,30.16-19.1,10.239-37.982,21.159-56.121,32.439-17.57,10.93-34.96,22.531-51.68,34.46-16.16,11.53-32.161,23.711-47.559,36.2-14.831,12.029-29.53,24.7-43.722,37.66-13.6,12.43-27.119,25.5-40.169,38.849-12.47,12.74-24.9,26.12-36.939,39.761-11.432,12.96-22.88,26.55-34.011,40.4-10.479,13.058-21.03,26.78-31.359,40.779-9.631,13.051-19.39,26.8-29.021,40.871-17.6,25.7-35.549,53.631-54.92,85.369-17.038,27.93-33.019,55.271-48.469,81.711l-.12.2-.04.081-.021.019-.089.16-.031.06-.019.031c-21.56,36.9-41.921,71.74-62.491,103.589-11.029,17.081-21.219,31.941-31.17,45.41-11.069,15-21.649,28.05-32.35,39.9-23.54,26.1-47.1,45.649-72.02,59.76a214.471,214.471,0,0,1-20.23,10.14,208.6,208.6,0,0,1-21.36,7.979,211.67,211.67,0,0,1-22.6,5.75q-5.837,1.139-11.73,1.979-6.092.856-12.229,1.392a258.945,258.945,0,0,1-35.21.6,322.6,322.6,0,0,1-38.321-4.31c-13.02-2.24-26.03-4.071-38.689-5.451-12.351-1.359-24.7-2.321-36.7-2.87-11.7-.53-23.43-.69-34.84-.461-11.121.231-22.271.821-33.14,1.771-14.7,1.289-29.451,3.269-43.83,5.89-13.7,2.5-27.541,5.659-41.1,9.4-12.831,3.539-25.87,7.719-38.751,12.409-12.05,4.391-24.409,9.421-36.75,14.92-21.539,9.6-44.119,21.171-69.069,35.351-21.41,12.18-41.53,24.5-65.611,39.329l-3.4,2.1c-20.781,12.81-42.241,26.009-63.761,38.34-7.3,4.19-14.249,8.061-20.99,11.719q-6.121,3.316-12.06,6.411c-11.8,6.141-22.94,11.561-34.05,16.589-7.1,3.211-14.192,6.25-21.211,9.091q-7.17,2.908-14.219,5.509c-12.38,4.591-24.881,8.66-37.151,12.11-12.979,3.641-26.18,6.711-39.25,9.121-13.71,2.541-27.739,4.45-41.7,5.67-10.1.891-20.44,1.44-30.731,1.64q-4.466.08-8.99.081C109.7,4285.991,101.922,4285.814,94.151,4285.44ZM1920,3152.281l1.2-.38.721-.222c.9-.28,1.8-.559,2.7-.85,24.239-7.619,48.2-15.949,71.23-24.76,22.429-8.589,44.6-17.869,65.889-27.6,20.71-9.46,41.179-19.6,60.86-30.16,19.1-10.24,37.98-21.161,56.121-32.44,17.57-10.93,34.959-22.53,51.689-34.46,16.15-11.53,32.149-23.709,47.55-36.2,14.83-12.031,29.54-24.7,43.72-37.66,13.6-12.43,27.121-25.5,40.181-38.861,12.459-12.731,24.889-26.111,36.929-39.751,11.429-12.96,22.88-26.548,34.009-40.4,10.481-13.07,21.03-26.78,31.361-40.78,9.629-13.051,19.39-26.8,29.019-40.869,17.6-25.71,35.561-53.631,54.92-85.381,17.04-27.921,33.021-55.259,48.48-81.709l.11-.2.041-.069.119-.191c21.57-36.92,41.96-71.8,62.53-103.67,11.031-17.091,21.221-31.939,31.17-45.41,11.071-15,21.651-28.05,32.35-39.9,23.542-26.1,47.1-45.651,72.02-59.76a216.034,216.034,0,0,1,20.23-10.131,205.946,205.946,0,0,1,21.36-7.989,209.923,209.923,0,0,1,22.6-5.742,227.6,227.6,0,0,1,23.962-3.379,258.5,258.5,0,0,1,35.222-.6,321.472,321.472,0,0,1,38.307,4.31q7.257,1.243,14.5,2.319c8.147,1.21,16.24,2.261,24.187,3.12,12.355,1.37,24.7,2.33,36.7,2.88,11.709.53,23.438.69,34.852.461,11.117-.229,22.26-.819,33.14-1.77,14.7-1.291,29.447-3.28,43.828-5.89,13.7-2.5,27.539-5.661,41.1-9.4,12.829-3.541,25.87-7.71,38.751-12.411,12.048-4.391,24.409-9.41,36.75-14.92,21.539-9.61,44.117-21.159,69.069-35.339,21.408-12.191,41.528-24.511,65.609-39.341l3.4-2.1c20.78-12.8,42.24-26.01,63.759-38.34,11.723-6.721,22.532-12.64,33.052-18.12,11.8-6.15,22.94-11.57,34.052-16.6,11.94-5.4,23.858-10.31,35.43-14.61,12.38-4.58,24.881-8.66,37.149-12.1,12.981-3.639,26.182-6.709,39.25-9.121,13.71-2.538,27.739-4.439,41.7-5.659,10.1-.89,20.44-1.44,30.729-1.64,10.572-.2,21.412-.05,32.23.461,11.081.509,22.472,1.44,33.842,2.71,11.628,1.309,23.6,3.04,35.58,5.138l3.369.58.264.05c6.954,1.21,14.016,2.44,21.107,3.97l1.557.36.152.041c.561.139,1.112.27,1.659.389,13.6,2.92,27.211,5.341,40.449,7.189,12.871,1.81,25.793,3.13,38.381,3.94,12.2.79,24.49,1.11,36.5.971,11.6-.141,23.308-.721,34.809-1.721,11.532-1.01,23.231-2.479,34.763-4.37,11-1.8,22.206-4.04,33.329-6.659a577.406,577.406,0,0,0,63.237-18.931c18.363-6.58,38.022-14.51,60.1-24.239,19.687-8.681,39.487-17.969,58.638-26.961l.048-.019,2.475-1.16c21.957-10.31,40.285-18.86,59.655-27.348,22.551-9.882,42.771-17.96,61.822-24.7a603.237,603.237,0,0,1,65.738-19.4c11.623-2.7,23.36-5.007,34.889-6.879,12.1-1.96,24.4-3.481,36.543-4.539,14.009-1.23,28.3-1.872,42.488-1.922,14.781-.039,29.94.551,45.061,1.777,15.67,1.274,31.8,3.263,47.918,5.927,16.682,2.737,33.873,6.268,51.1,10.5a287.281,287.281,0,0,0,43.671,7.293,239.157,239.157,0,0,0,40.8.019,222.5,222.5,0,0,0,47.378-9.39,236.808,236.808,0,0,0,22.483-8.34c7.251-3.109,14.571-6.678,21.792-10.6,7.029-3.828,14.159-8.122,21.178-12.742q3.8-2.509,7.631-5.2c4.36-3.045,8.72-6.253,13.06-9.581,6.681-5.141,13.509-10.749,20.271-16.684,4.338-3.8,8.749-7.808,13.189-11.977q3.374-3.183,6.77-6.48c12.75-12.434,25.609-26.1,39.321-41.8,12.32-14.12,25.129-29.659,39.149-47.5,26.149-33.292,52.6-69.6,80.589-108.047l.021-.023.129-.179.189-.256c36.28-49.822,73.8-101.323,116.122-153.891,23.7-29.443,46.339-56.032,69.219-81.3,12.49-13.8,25.18-27.319,37.71-40.183,13.22-13.567,26.71-26.859,40.081-39.5,14.02-13.263,28.37-26.232,42.638-38.552,14.891-12.852,30.17-25.4,45.422-37.3,15.849-12.38,32.14-24.419,48.409-35.8,16.861-11.792,34.231-23.243,51.621-34.023,17.959-11.129,36.47-21.869,55.03-31.937,19.129-10.379,38.86-20.34,58.661-29.6,20.359-9.533,41.4-18.611,62.508-26.99q11.687-4.635,23.642-9.082c.809-.251,1.619-.538,2.419-.815.74-.262,1.47-.52,2.2-.75,24.239-7.621,48.2-15.949,71.23-24.762,22.429-8.594,44.6-17.871,65.889-27.6,20.71-9.462,41.181-19.6,60.86-30.156,19.1-10.246,37.98-21.163,56.121-32.444,17.57-10.93,34.959-22.524,51.689-34.458,16.15-11.526,32.149-23.705,47.549-36.2,14.83-12.035,29.54-24.7,43.72-37.66,13.6-12.434,27.121-25.5,40.171-38.847,12.47-12.742,24.9-26.12,36.939-39.767,11.43-12.952,22.88-26.543,34.009-40.4,10.481-13.058,21.032-26.776,31.361-40.776,9.629-13.047,19.39-26.8,29.019-40.871,17.6-25.7,35.561-53.625,54.92-85.367,17.041-27.932,33.021-55.269,48.471-81.707l.12-.2.041-.083.02-.023.09-.156c21.58-36.929,41.96-71.812,62.539-103.684,11.031-17.081,21.221-31.941,31.17-45.41,11.071-15,21.65-28.046,32.35-39.9,23.542-26.1,47.1-45.643,72.02-59.756a214.911,214.911,0,0,1,20.23-10.136,209.009,209.009,0,0,1,21.359-7.985,213.126,213.126,0,0,1,22.6-5.742,226.511,226.511,0,0,1,23.96-3.375,258.172,258.172,0,0,1,35.22-.6,321.644,321.644,0,0,1,38.311,4.308c13.02,2.242,26.04,4.075,38.689,5.453,12.349,1.361,24.7,2.321,36.7,2.872,11.711.526,23.439.688,34.84.457,11.131-.231,22.27-.817,33.14-1.769,14.7-1.289,29.449-3.271,43.83-5.892,13.7-2.5,27.55-5.659,41.11-9.4,12.821-3.543,25.87-7.714,38.741-12.413,12.05-4.387,24.409-9.414,36.748-14.918,21.551-9.6,44.121-21.165,69.071-35.345,21.41-12.187,41.53-24.507,65.609-39.335l3.4-2.1c20.78-12.8,42.239-26.009,63.761-38.34,11.719-6.719,22.529-12.638,33.049-18.122,11.8-6.148,22.94-11.566,34.05-16.6,11.94-5.4,23.859-10.312,35.43-14.6,12.38-4.589,24.881-8.66,37.151-12.11,12.979-3.639,26.18-6.705,39.25-9.117,13.709-2.542,27.739-4.445,41.7-5.663,10.1-.892,20.44-1.444,30.729-1.642,10.57-.2,21.41-.05,32.23.461,11.081.52,22.47,1.438,33.84,2.712,11.63,1.309,23.6,3.04,35.58,5.137,8.121,1.422,16.4,3.043,24.731,4.844v143.2l-2.321-.509-1.039-.222c-13.6-2.918-27.211-5.339-40.46-7.191-12.862-1.806-25.781-3.13-38.381-3.938-12.2-.79-24.48-1.11-36.5-.969-11.59.141-23.3.719-34.8,1.719-11.541,1.012-23.231,2.477-34.761,4.371-11,1.8-22.21,4.04-33.331,6.655a578.2,578.2,0,0,0-63.239,18.933c-18.36,6.582-38.02,14.508-60.1,24.239-19.689,8.679-39.479,17.967-58.64,26.961l-.039.019-2.48,1.16c-21.961,10.314-40.279,18.86-59.65,27.348-22.561,9.874-42.791,17.952-61.82,24.7a607.689,607.689,0,0,1-65.75,19.4c-11.62,2.7-23.349,5-34.89,6.871-12.1,1.962-24.39,3.485-36.54,4.551-14,1.222-28.3,1.868-42.48,1.91-14.789.046-29.95-.547-45.069-1.777-15.67-1.274-31.8-3.265-47.931-5.919-16.67-2.737-33.859-6.272-51.09-10.5A285.447,285.447,0,0,0,6785,286.96a238.244,238.244,0,0,0-40.79-.023,222.609,222.609,0,0,0-47.389,9.39,237.9,237.9,0,0,0-22.479,8.336c-3.381,1.453-6.781,3-10.171,4.641q-5.834,2.81-11.62,5.956c-3.009,1.646-6.048,3.375-9.08,5.181-4.04,2.4-8.089,4.925-12.089,7.565-6.85,4.516-13.82,9.485-20.691,14.781-4.15,3.188-8.35,6.555-12.549,10.063q-3.872,3.227-7.719,6.613c-6.561,5.73-13.282,11.944-19.97,18.465-12.75,12.426-25.612,26.1-39.321,41.8-12.32,14.116-25.13,29.655-39.138,47.5-26.061,33.159-52.391,69.3-80.262,107.573l-.358.493-.131.183-.191.27c-36.268,49.808-73.8,101.313-116.119,153.878-23.7,29.447-46.339,56.036-69.22,81.3-12.49,13.8-25.18,27.317-37.71,40.185-13.22,13.575-26.7,26.862-40.081,39.5-14.02,13.253-28.36,26.223-42.639,38.539-14.891,12.856-30.17,25.405-45.419,37.313-15.841,12.37-32.142,24.417-48.4,35.8-16.859,11.792-34.241,23.231-51.63,34.007-17.96,11.129-36.471,21.884-55.03,31.941-19.13,10.379-38.87,20.34-58.661,29.6-20.359,9.545-41.4,18.613-62.51,26.994l-.869.339c-7.5,2.987-15.1,6-22.769,8.851-.311.094-.632.2-.95.3l-.8.254-2.872.9c-24.229,7.623-48.2,15.953-71.23,24.775-22.429,8.577-44.6,17.865-65.889,27.585-20.71,9.462-41.181,19.613-60.851,30.164-19.1,10.246-37.98,21.155-56.119,32.444-17.57,10.923-34.971,22.52-51.7,34.453-16.15,11.528-32.14,23.711-47.55,36.2-14.82,12.031-29.54,24.7-43.71,37.66-13.6,12.43-27.13,25.5-40.181,38.851-12.471,12.738-24.9,26.12-36.93,39.759-11.439,12.948-22.88,26.55-34.009,40.4-10.491,13.06-21.04,26.783-31.371,40.782-9.62,13.047-19.39,26.8-29.02,40.871-17.6,25.7-35.561,53.629-54.92,85.367-17.04,27.93-33.021,55.265-48.471,81.711l-.12.2-.041.079-.11.179c-21.569,36.933-41.96,71.812-62.529,103.68-11.04,17.092-21.23,31.941-31.18,45.41-11.071,15-21.651,28.05-32.352,39.9-23.54,26.1-47.1,45.649-72.02,59.771a215.945,215.945,0,0,1-20.228,10.125,208.9,208.9,0,0,1-21.362,7.989q-4.154,1.307-8.373,2.44-7.052,1.891-14.223,3.3a227.565,227.565,0,0,1-23.958,3.381,258.484,258.484,0,0,1-35.22.6,321.6,321.6,0,0,1-38.312-4.31c-13.02-2.24-26.038-4.071-38.687-5.451-12.349-1.359-24.7-2.319-36.7-2.87-11.711-.53-23.439-.69-34.852-.459-11.118.229-22.271.819-33.136,1.769-14.7,1.289-29.451,3.271-43.832,5.89-13.7,2.5-27.543,5.661-41.1,9.4-12.829,3.541-25.87,7.71-38.75,12.411-12.048,4.389-24.409,9.41-36.747,14.92-21.542,9.6-44.121,21.159-69.071,35.339-21.41,12.189-41.53,24.509-65.611,39.341l-3.4,2.1c-20.779,12.8-42.239,26.011-63.759,38.34-11.721,6.719-22.532,12.64-33.051,18.12-11.8,6.15-22.94,11.57-34.052,16.6-11.938,5.4-23.858,10.31-35.43,14.6-12.38,4.589-24.877,8.66-37.149,12.11-12.981,3.639-26.182,6.709-39.25,9.119-13.71,2.54-27.739,4.441-41.7,5.661-10.1.891-20.44,1.44-30.729,1.64-10.572.2-21.412.05-32.23-.461-11.081-.521-22.47-1.44-33.842-2.71-11.628-1.311-23.6-3.04-35.58-5.131-.757-.148-1.521-.28-2.29-.408l-1.4-.251c-6.941-1.2-13.983-2.409-21.046-3.94-.526-.119-1.046-.25-1.565-.38-.272-.071-.549-.131-.833-.2-.328-.069-.646-.141-.977-.22-13.6-2.91-27.215-5.341-40.453-7.18-12.869-1.821-25.791-3.14-38.39-3.941-12.2-.788-24.478-1.108-36.5-.979-11.592.141-23.3.73-34.8,1.731-11.53,1.01-23.229,2.479-34.761,4.369-11,1.791-22.221,4.04-33.331,6.659a575.357,575.357,0,0,0-63.237,18.931c-18.363,6.569-38.022,14.5-60.1,24.239-19.688,8.679-39.491,17.969-58.642,26.949l-.048.031-2.471,1.16c-21.961,10.3-40.289,18.86-59.659,27.35-22.549,9.859-42.771,17.95-61.82,24.7a603.849,603.849,0,0,1-65.742,19.39c-11.618,2.7-23.358,5-34.9,6.881-12.089,1.958-24.378,3.469-36.53,4.539-14.009,1.23-28.3,1.87-42.488,1.92-14.781.041-29.938-.549-45.061-1.781-15.67-1.268-31.8-3.259-47.929-5.909-16.67-2.749-33.861-6.289-51.09-10.5a286.923,286.923,0,0,0-43.67-7.311,238.57,238.57,0,0,0-40.8-.01,222.451,222.451,0,0,0-47.384,9.39,233.135,233.135,0,0,0-22.47,8.34q-6.5,2.773-13.02,6.029-4.4,2.191-8.77,4.57c-7.031,3.83-14.161,8.12-21.18,12.75q-4.3,2.822-8.65,5.89c-4.011,2.829-8.039,5.8-12.041,8.88-6.69,5.14-13.509,10.761-20.269,16.68q-4.5,3.946-9.1,8.161c-3.61,3.321-7.24,6.769-10.859,10.3-12.75,12.43-25.61,26.1-39.319,41.8-12.322,14.12-25.132,29.659-39.152,47.5-26.168,33.31-52.619,69.63-80.63,108.08l-.12.169-.191.27-.06.081c-36.259,49.78-73.749,101.259-116.05,153.8-23.7,29.449-46.339,56.04-69.219,81.3-12.49,13.8-25.18,27.321-37.71,40.181-13.22,13.569-26.71,26.86-40.079,39.5q-11.521,10.888-23.272,21.469-9.674,8.714-19.369,17.079c-14.891,12.85-30.17,25.4-45.42,37.311-15.851,12.37-32.142,24.409-48.411,35.8-16.859,11.79-34.229,23.229-51.62,34.009-17.96,11.131-36.469,21.88-55.03,31.941-19.13,10.379-38.87,20.34-58.659,29.6-20.371,9.541-41.4,18.609-62.51,26.99q-11.7,4.635-23.64,9.08Z" transform="translate(-18249 -21064)" fill="#3ad15c"/>
    </g>
    <g id="blue">
      <path id="Path_30515" data-name="Path 30515" d="M3838.5-635v36.1a356.065,356.065,0,0,1-31.6,18.4,376.009,376.009,0,0,1-35,15.5c-11.7,4.5-24.2,8.6-37,12.2-12.3,3.5-25.3,6.6-38.8,9.3-12.8,2.6-26.4,4.9-40.3,6.8-13.2,1.8-27.2,3.4-41.6,4.7-16.4,1.4-33.4,2.5-51.9,3.3-16.5.7-33.9,1.1-53.1,1.3-35.7.4-72.6-.2-108.3-.7h-1c-35.7-.5-72.6-1.1-108.7-.7-19.4.2-37,.6-53.7,1.3-18.7.8-35.9,1.9-52.6,3.3-21.1,1.8-41.2,4.3-59.8,7.3-20.1,3.3-39.3,7.3-57.1,12.1-9.3,2.5-18.5,5.2-27.3,8.1-9,3-17.9,6.3-26.4,9.7-8.7,3.6-17.3,7.4-25.4,11.5-8.4,4.2-16.6,8.6-24.4,13.3-8,4.8-15.8,9.9-23.2,15.3-7.6,5.5-15,11.4-22,17.4-7.1,6.2-14.1,12.8-20.7,19.7-6.7,7-13.2,14.4-19.3,22.1-6.2,7.8-12.2,16.1-17.8,24.6-5.7,8.7-11.2,17.8-16.3,27.3-5.2,9.6-10.1,19.7-14.7,30.1-4.6,10.5-9,21.6-13,33-6,17.2-12.7,34.1-19.8,50.1-6.9,15.6-14.5,30.8-22.4,45.3-7.7,14.1-16.1,27.8-24.8,40.8-8.5,12.7-17.5,25-27,36.7-9.1,11.3-18.9,22.4-29,32.8-9.7,10.1-20.1,20-30.8,29.2-10.3,9-21.2,17.7-32.4,26-10.8,8-22.1,15.7-33.8,23.1-11.1,7.1-22.9,13.9-34.9,20.5-11.5,6.2-23.5,12.4-35.9,18.2-22.8,10.8-47,20.8-74,30.7-50,18.4-101.3,33.2-150.9,47.5-44.5,12.9-86.5,25-127,39.4-21.8,7.7-41,15.3-58.8,23.3-9.6,4.3-19,8.8-27.8,13.3-9.2,4.7-18.1,9.7-26.5,14.7-8.7,5.2-17.1,10.7-25,16.2-8.2,5.8-16.1,11.8-23.5,18-7.6,6.4-15,13.1-21.8,20-7,7.1-13.8,14.6-20,22.2q-9.6,11.85-18,24.6a285.53,285.53,0,0,0-15.9,27.3c-5.1,9.8-7.6,18.7-13.7,30.1-2,3.8-5.3,9.6-5.3,9.6v-.3c-2.6,4.3-9.8,15.8-15.8,23-6.8,8.1-12.6,13-19.4,19.1-6.6,6-13.7,11.9-21,17.5-7.1,5.5-14.7,10.9-22.6,16-7.6,5-15.7,9.9-24,14.7-8,4.6-16.6,9.1-25.3,13.5-16.6,8.3-34.4,16.1-54.2,23.8-17.7,7-36.7,13.7-58.1,20.7-39.8,13-80.8,24.5-124.2,36.7h-.3c-54.3,15.2-110.5,31-165.2,50.3-29.5,10.4-56,20.9-80.9,32.1-13.5,6.1-26.7,12.4-39.1,18.8-13.1,6.8-25.9,13.8-37.9,21.1-12.6,7.6-24.9,15.5-36.5,23.6-12.1,8.4-23.8,17.4-34.9,26.5-11.5,9.5-22.6,19.4-33,29.7-10.8,10.6-21.1,21.7-30.8,33.1-10,11.8-19.6,24.2-28.4,36.9-9.1,13.1-17.8,26.9-25.8,41-8.2,14.5-15.9,29.8-23,45.4-7.2,16-13.9,32.8-19.9,50.1a447.238,447.238,0,0,1-23.1,54.8c-4.2,8.2-8.6,16.3-13.2,23.9-4.5,7.5-9.3,14.8-14.3,21.7-4.9,6.8-10,13.4-15.3,19.6-5.2,6.1-10.7,12-16.3,17.6a270.166,270.166,0,0,1-35.4,29.5,277.264,277.264,0,0,1-38.7,22.6,329.623,329.623,0,0,1-41.6,16.4,396.348,396.348,0,0,1-44.2,11c-14.6,2.7-30.2,4.8-46.4,6.2-10.2.9-20.9,1.5-31.8,1.9-10.4.4-21.3.5-32.5.4-20.6-.2-42.4-1.1-66.5-2.9-20.2-1.5-42.5-3.6-68-6.4-21.8-2.4-43.1-5-68.6-8.2l-2.7-.3c-44.4-5.5-90.2-11.1-133.9-14.4-23.5-1.8-44.5-2.7-64.4-2.9-22.2-.2-42.3.4-61.5,2.1-11.1,1-21.9,2.3-32.2,3.9-10.7,1.7-21.1,3.8-30.9,6.2-10.2,2.5-20.1,5.5-29.5,8.8a285.244,285.244,0,0,0-28,11.7,252.4,252.4,0,0,0-26.3,14.8,239.009,239.009,0,0,0-24.5,18.2,79.871,79.871,0,0,1-7.7,5.2c-.7.5-1.4.9-2.1,1.4l-.4.3c-10.2,7-22.7,15.6-30.6,19.6a376.053,376.053,0,0,1-35,15.5c-11.7,4.5-24.2,8.6-37,12.2-12.3,3.5-25.4,6.6-38.8,9.3-12.8,2.6-26.4,4.9-40.3,6.8-13.2,1.8-27.2,3.4-41.6,4.7-16.4,1.4-33.4,2.5-51.9,3.2-16.5.7-33.9,1.1-53.1,1.3-35.7.3-72.6-.2-108.3-.7h-1.1c-35.7-.5-72.6-1.1-108.8-.7-19.4.2-37,.6-53.7,1.3-18.7.8-35.9,1.9-52.6,3.3-21.1,1.8-41.2,4.3-59.8,7.3-20.1,3.3-39.3,7.3-57.1,12.1-9.3,2.5-18.6,5.2-27.3,8.1-9,3-17.9,6.3-26.4,9.7-8.7,3.6-17.3,7.4-25.4,11.5-8.4,4.2-16.6,8.6-24.4,13.3-8,4.8-15.8,9.9-23.2,15.3-7.6,5.5-15,11.3-22,17.4-7.1,6.2-14.1,12.8-20.7,19.7-6.7,7-13.2,14.4-19.3,22.1-6.2,7.8-12.2,16.1-17.8,24.6-5.7,8.7-11.2,17.8-16.3,27.3-5.2,9.6-10.1,19.7-14.7,30.1-4.6,10.5-9,21.6-12.9,33-6.1,17.2-12.7,34.1-19.8,50.1-6.9,15.6-14.4,30.9-22.4,45.3-7.7,14.1-16.1,27.8-24.8,40.8-8.5,12.7-17.6,25-27,36.7-9.1,11.3-18.9,22.4-29,32.8-9.8,10.1-20.1,20-30.8,29.3-10.3,9-21.2,17.7-32.4,26-10.8,8-22.1,15.7-33.7,23.1-11.1,7.1-22.9,13.9-34.9,20.5-11.5,6.2-23.5,12.4-35.9,18.2-22.8,10.8-47,20.8-74,30.7-50,18.4-101.3,33.2-150.9,47.6-44.5,12.9-86.5,25-127,39.4-21.8,7.7-41,15.3-58.8,23.3-9.6,4.3-19,8.8-27.8,13.3-9.2,4.7-18.1,9.7-26.5,14.7-8.7,5.2-17.1,10.7-25,16.2-8.2,5.8-16.1,11.8-23.5,18-7.6,6.4-15,13.1-21.8,20-7,7.1-13.8,14.6-20,22.2q-9.6,11.85-18,24.6a285.576,285.576,0,0,0-15.9,27.3c-.4.7-1.7,2.8-3.2,5.7-.7,1.4-1.1,2.1-2,3.8-1,1.8-1.9,3.6-3.8,7.1-6.2,11.6-7.8,14.6-10,19.3-.4.9-.8,1.7-1,2.1v.1l-.2.3-.8,1.7v-.5c-2.7,4.1-10.1,15.1-14.8,20.3-6.1,6.6-12.6,13-19.4,19.2-6.6,6-13.7,11.9-21,17.5-7.1,5.5-14.7,10.9-22.6,16-7.6,5-15.7,9.9-24,14.7-8,4.6-16.5,9.1-25.3,13.4-16.6,8.3-34.4,16.1-54.2,23.9-17.7,7-36.7,13.7-58.1,20.7-39.8,13-80.8,24.5-124.2,36.7h-.3c-54.3,15.2-110.5,31-165.2,50.3-29.5,10.4-56,20.9-80.9,32.1-13.5,6.1-26.7,12.4-39.1,18.8-13.1,6.8-25.9,13.8-37.9,21.1-12.6,7.6-24.9,15.5-36.5,23.6-12.1,8.5-23.8,17.4-34.9,26.5-11.5,9.5-22.6,19.4-33,29.7-10.8,10.6-21.1,21.7-30.8,33.1-10,11.8-19.6,24.2-28.4,36.9-9.1,13.1-17.8,26.9-25.8,41-8.2,14.5-15.9,29.8-23,45.4-7.2,16-13.9,32.8-19.9,50.1a447.265,447.265,0,0,1-23.1,54.8c-4.2,8.2-8.6,16.3-13.2,23.9-4.5,7.5-9.3,14.8-14.3,21.7-4.9,6.8-10,13.4-15.3,19.6-5.2,6.1-10.7,12-16.3,17.6a270.14,270.14,0,0,1-35.4,29.5,277.256,277.256,0,0,1-38.7,22.6,329.646,329.646,0,0,1-41.6,16.4,396.3,396.3,0,0,1-44.2,11c-14.6,2.7-30.2,4.8-46.4,6.2-10.2.9-20.9,1.5-31.8,1.9-10.4.4-21.3.5-32.5.4-20.6-.2-42.3-1.1-66.5-2.9-20.2-1.5-42.4-3.6-68-6.4-21.8-2.4-43.1-5-68.6-8.2l-2.7-.3c-44.4-5.5-90.2-11.1-133.9-14.4-23.5-1.8-44.5-2.7-64.4-3-22.2-.2-42.3.5-61.5,2.1-11.1,1-21.9,2.3-32.2,3.9-10.7,1.7-21.1,3.8-30.9,6.2-10.2,2.5-20.1,5.5-29.5,8.8a285.313,285.313,0,0,0-28,11.7,252.421,252.421,0,0,0-26.3,14.8,239,239,0,0,0-24.5,18.2c-3.1,2.7-6.2,5.4-9.1,8.2v-36.1a343.972,343.972,0,0,1,31.7-18.4,376.017,376.017,0,0,1,35-15.5c11.7-4.5,24.2-8.6,37-12.2,12.3-3.5,25.4-6.6,38.8-9.3,12.8-2.6,26.4-4.9,40.3-6.8,13.2-1.8,27.2-3.4,41.6-4.6,16.4-1.4,33.4-2.5,51.9-3.3,16.5-.7,33.9-1.1,53.1-1.3,35.7-.4,72.6.2,108.3.7h1c35.7.5,72.6,1.1,108.7.7,19.4-.2,37-.6,53.7-1.3,18.7-.8,35.9-1.9,52.6-3.3,21.1-1.8,41.2-4.3,59.8-7.3,20.1-3.3,39.3-7.3,57.1-12.1,9.3-2.5,18.6-5.2,27.3-8.1,9.1-3,17.9-6.3,26.4-9.7,8.7-3.6,17.3-7.4,25.4-11.5,8.4-4.1,16.6-8.6,24.4-13.3,8-4.8,15.8-9.9,23.2-15.3,7.6-5.5,15-11.3,22-17.4,7.1-6.2,14.1-12.8,20.7-19.7,6.7-7,13.2-14.4,19.3-22.1,6.2-7.8,12.2-16.1,17.8-24.6,5.7-8.7,11.2-17.8,16.3-27.3,5.2-9.6,10.1-19.7,14.7-30.1,4.6-10.5,9-21.6,13-33,6-17.2,12.7-34.1,19.8-50.1,6.9-15.6,14.5-30.9,22.4-45.3,7.7-14.1,16.1-27.8,24.8-40.8,8.5-12.6,17.6-25,27-36.6,9.1-11.3,18.9-22.4,29-32.8,9.7-10.1,20.1-20,30.8-29.2,10.3-9,21.2-17.7,32.4-26,10.8-8,22.1-15.7,33.8-23.1,11.1-7,22.9-13.9,34.9-20.5,11.4-6.2,23.5-12.3,35.9-18.2,22.8-10.8,47-20.8,74-30.7,50-18.4,101.3-33.2,150.9-47.5,44.5-12.9,86.5-25,127-39.4,21.8-7.7,41-15.3,58.8-23.3,9.6-4.3,19-8.8,27.8-13.3,9.2-4.7,18.1-9.7,26.5-14.7,8.7-5.2,17.1-10.7,25-16.2,8.2-5.8,16.1-11.8,23.5-18,7.6-6.4,15-13.1,21.8-20,7-7.1,13.8-14.6,20-22.2q9.6-11.85,18-24.6a285.49,285.49,0,0,0,15.9-27.3c5.1-9.8,7.6-18.7,13.7-30.1,2-3.8,5.3-9.6,5.3-9.6v-.2c5.2-6.8,10.9-13.5,16.8-20,6-6.5,12.6-13,19.4-19.2,6.6-6,13.7-11.9,21-17.5,7.1-5.5,14.7-10.9,22.6-16,7.6-5,15.7-9.9,24-14.7,8-4.6,16.5-9.1,25.3-13.5,16.6-8.3,34.4-16.1,54.2-23.9,17.7-6.9,36.7-13.7,58.1-20.7,39.8-13,80.8-24.5,124.2-36.7h.1l.2-.1c54.3-15.2,110.5-31,165.2-50.3,29.5-10.4,56-20.9,80.9-32.1,13.5-6,26.7-12.4,39.1-18.8,13.1-6.8,25.9-13.8,37.9-21.1,12.6-7.6,24.9-15.5,36.5-23.6,12.1-8.5,23.8-17.4,34.9-26.5,11.5-9.5,22.6-19.4,33-29.7,10.8-10.6,21.1-21.7,30.8-33.1,10-11.8,19.6-24.2,28.4-36.9,9.1-13.1,17.8-26.9,25.8-41,8.2-14.5,15.9-29.8,23-45.4,7.2-16,13.9-32.8,19.9-50a447.239,447.239,0,0,1,23.1-54.8c4.2-8.3,8.6-16.3,13.2-23.9,4.5-7.5,9.3-14.8,14.3-21.7,4.9-6.8,10-13.4,15.3-19.6,5.2-6.1,10.7-12,16.3-17.6a270.15,270.15,0,0,1,35.4-29.5,277.253,277.253,0,0,1,38.7-22.6,315.176,315.176,0,0,1,41.6-16.4,396.321,396.321,0,0,1,44.2-11c14.6-2.7,30.2-4.8,46.4-6.2,10.2-.9,20.9-1.5,31.8-1.9,10.4-.4,21.3-.5,32.5-.4,20.6.2,42.4,1.1,66.5,2.9,20.2,1.5,42.5,3.6,68,6.4,21.8,2.4,43.1,5,68.6,8.1l2.7.3c44.4,5.5,90.2,11.1,133.9,14.4,23.5,1.8,44.5,2.7,64.4,2.9,22.2.2,42.3-.4,61.5-2.1,11.1-1,21.9-2.3,32.1-3.9,10.7-1.7,21.1-3.8,30.9-6.2,10.2-2.5,20.1-5.5,29.5-8.8a285.244,285.244,0,0,0,28-11.7,252.4,252.4,0,0,0,26.3-14.8A190.247,190.247,0,0,0-19,1223.5c2.8-2.2,5.7-4.5,9-6.9,2.8-2.1,6.4-4.8,9.4-7l5.7-4.3s14.8-9.7,25.6-15.2a376.053,376.053,0,0,1,35-15.5c11.7-4.5,24.2-8.6,37-12.2,12.3-3.5,25.3-6.6,38.8-9.3,12.8-2.6,26.4-4.9,40.3-6.8,13.2-1.8,27.2-3.4,41.6-4.7,16.4-1.4,33.4-2.5,51.9-3.3,16.5-.7,33.9-1.1,53.1-1.3,35.7-.3,72.6.2,108.3.7h1c35.7.5,72.6,1.1,108.7.7,19.4-.2,37-.6,53.7-1.3,18.7-.8,35.9-1.9,52.6-3.3,21.1-1.8,41.2-4.3,59.8-7.3,20.1-3.3,39.3-7.3,57.1-12.1,9.4-2.5,18.6-5.2,27.4-8.1,9-3,17.9-6.3,26.4-9.7,8.7-3.6,17.3-7.4,25.5-11.5,8.4-4.2,16.6-8.6,24.4-13.3,8-4.8,15.8-9.9,23.2-15.3,7.6-5.5,15-11.3,22-17.4,7.1-6.2,14.1-12.9,20.7-19.7,6.7-7,13.2-14.4,19.3-22.1,6.2-7.8,12.2-16.1,17.8-24.6,5.7-8.7,11.2-17.8,16.3-27.3,5.2-9.6,10.1-19.7,14.7-30.1,4.6-10.5,9-21.6,13-33,6-17.2,12.7-34.1,19.8-50.1,6.9-15.6,14.5-30.9,22.4-45.3,7.7-14.1,16.1-27.8,24.8-40.8,8.5-12.6,17.6-25,27-36.6,9.1-11.3,18.9-22.4,29-32.8,9.8-10.1,20.1-20,30.8-29.3,10.3-9,21.2-17.7,32.4-26,10.8-7.9,22.1-15.7,33.8-23.1,11.1-7,22.9-14,34.9-20.5,11.5-6.2,23.5-12.3,35.9-18.2,22.8-10.8,47-20.8,74-30.7,50-18.4,101.3-33.2,150.9-47.5,44.5-12.9,86.5-25,127-39.4,21.8-7.7,41-15.3,58.8-23.3,9.6-4.3,19-8.8,27.8-13.3,9.2-4.7,18.1-9.7,26.5-14.7,8.7-5.2,17.1-10.7,25-16.2,8.2-5.8,16.1-11.8,23.5-18,7.6-6.4,15-13.1,21.8-20,7-7.1,13.8-14.6,20-22.2q9.6-11.85,18-24.6a285.56,285.56,0,0,0,15.9-27.3c5.1-9.8,13.7-29.1,13.7-29.1l5.3-11.3h0l.2-.3.8-1.7v.5c2.7-4,10-15.1,14.8-20.3,6-6.6,12.6-13,19.4-19.2,6.6-6,13.7-11.9,21-17.5,7.1-5.5,14.7-10.9,22.6-16,7.6-5,15.7-9.9,24-14.7,8-4.6,16.6-9.1,25.3-13.4,16.6-8.3,34.4-16.1,54.2-23.8,17.7-7,36.7-13.7,58.1-20.7,39.8-13,80.8-24.5,124.2-36.7h.3c54.4-15.2,110.5-31,165.2-50.3,29.5-10.4,56-20.9,80.9-32,13.5-6.1,26.7-12.4,39.1-18.8,13.1-6.8,25.9-13.8,38-21.1,12.6-7.6,24.9-15.5,36.5-23.6,12.1-8.5,23.8-17.4,34.9-26.5,11.5-9.5,22.6-19.4,33-29.7,10.8-10.6,21.1-21.7,30.8-33.1,10-11.8,19.5-24.2,28.4-36.9,9.1-13.1,17.8-26.9,25.8-41,8.2-14.5,15.9-29.8,23-45.4,7.2-16,13.9-32.8,19.9-50.1a447.218,447.218,0,0,1,23.1-54.8c4.2-8.2,8.6-16.3,13.2-23.9,4.5-7.5,9.3-14.8,14.3-21.7,4.9-6.8,10-13.4,15.3-19.6,5.2-6.1,10.7-12,16.3-17.6a270.164,270.164,0,0,1,35.4-29.5A277.268,277.268,0,0,1,2996-560a315.169,315.169,0,0,1,41.6-16.4,396.34,396.34,0,0,1,44.2-11c14.6-2.7,30.2-4.8,46.4-6.2,10.2-.9,20.9-1.5,31.8-1.9,10.4-.4,21.3-.5,32.5-.4,20.6.2,42.4,1.1,66.5,2.9,20.2,1.5,42.5,3.6,68,6.4,21.8,2.4,43.1,5,68.6,8.1l2.7.3c44.4,5.5,90.2,11.1,133.9,14.4,23.5,1.8,44.5,2.7,64.4,2.9,22.2.2,42.3-.4,61.5-2.1,11.1-1,21.9-2.3,32.1-3.9,10.7-1.7,21.1-3.8,30.9-6.2,10.2-2.5,20.1-5.5,29.5-8.8a285.253,285.253,0,0,0,28-11.7,252.4,252.4,0,0,0,26.3-14.8,238.986,238.986,0,0,0,24.5-18.2C3832.5-629.5,3835.5-632.2,3838.5-635Z" transform="translate(-14409 -20087)" fill="#0179e6"/>
    </g>
  </g>
</svg>
